<svg xmlns="http://www.w3.org/2000/svg" xmlns:xlink="http://www.w3.org/1999/xlink" width="1366" zoomAndPan="magnify" viewBox="0 0 1024.5 576" height="768" preserveAspectRatio="xMidYMid meet" version="1.0"><defs><g/><clipPath id="30ea69eb01"><path d="M 0 0.140625 L 1024 0.140625 L 1024 575.859375 L 0 575.859375 Z M 0 0.140625 " clip-rule="nonzero"/></clipPath><clipPath id="e07ac3e981"><path d="M 273.433594 145.054688 L 750.203125 145.054688 L 750.203125 415 L 273.433594 415 Z M 273.433594 145.054688 " clip-rule="nonzero"/></clipPath></defs><g clip-path="url(#30ea69eb01)"><path fill="#ffffff" d="M 0 0.140625 L 1024 0.140625 L 1024 575.859375 L 0 575.859375 Z M 0 0.140625 " fill-opacity="1" fill-rule="nonzero"/><path fill="#0d0149" d="M 0 0.140625 L 1024 0.140625 L 1024 575.859375 L 0 575.859375 Z M 0 0.140625 " fill-opacity="1" fill-rule="nonzero"/></g><g clip-path="url(#e07ac3e981)"><path fill="#f2f2f2" d="M 393.199219 364.085938 C 393.199219 367.367188 388.105469 367.367188 388.105469 364.085938 C 388.105469 360.804688 393.199219 360.808594 393.199219 364.085938 Z M 369.65625 343.648438 C 369.515625 343.882812 369.445312 344.140625 369.445312 344.417969 C 369.445312 344.691406 369.515625 344.949219 369.65625 345.1875 L 369.984375 345.675781 C 370.128906 345.921875 370.324219 346.117188 370.574219 346.265625 C 370.828125 346.414062 371.105469 346.488281 371.402344 346.488281 C 371.851562 346.480469 372.242188 346.324219 372.566406 346.011719 C 372.867188 345.683594 373.023438 345.292969 373.042969 344.847656 C 373.042969 344.558594 372.96875 344.285156 372.824219 344.03125 C 372.679688 343.777344 372.480469 343.578125 372.226562 343.429688 L 371.738281 343.105469 C 371.503906 342.960938 371.246094 342.890625 370.96875 342.890625 C 370.695312 342.890625 370.4375 342.960938 370.199219 343.105469 C 369.972656 343.238281 369.792969 343.417969 369.65625 343.644531 Z M 359.714844 360.71875 C 359.714844 364 364.808594 364 364.808594 360.71875 C 364.808594 357.4375 359.714844 357.433594 359.714844 360.71875 Z M 402.050781 348.210938 C 402.050781 351.492188 407.144531 351.492188 407.144531 348.210938 C 407.144531 344.929688 402.054688 344.921875 402.054688 348.210938 Z M 378.324219 257.296875 C 378.324219 260.582031 383.417969 260.582031 383.417969 257.296875 C 383.417969 254.015625 378.324219 254.015625 378.324219 257.296875 Z M 368.214844 264.515625 C 368.214844 267.796875 373.308594 267.796875 373.308594 264.515625 C 373.308594 261.230469 368.214844 261.230469 368.214844 264.515625 Z M 358.59375 240.460938 C 358.59375 243.742188 363.6875 243.742188 363.6875 240.460938 C 363.6875 237.179688 358.59375 237.179688 358.59375 240.460938 Z M 273.433594 216.28125 C 273.433594 219.5625 278.527344 219.5625 278.527344 216.28125 C 278.527344 213 273.433594 213 273.433594 216.28125 Z M 291.234375 214.835938 C 291.234375 218.121094 296.328125 218.121094 296.328125 214.835938 C 296.328125 211.554688 291.234375 211.554688 291.234375 214.835938 Z M 281.554688 140.949219 C 281.476562 141.085938 281.429688 141.230469 281.414062 141.386719 C 281.355469 141.441406 281.304688 141.503906 281.257812 141.570312 C 281.140625 141.765625 281.089844 141.980469 281.105469 142.207031 C 281.121094 142.433594 281.199219 142.640625 281.335938 142.820312 C 281.476562 143 281.652344 143.128906 281.871094 143.199219 C 282.085938 143.273438 282.304688 143.277344 282.527344 143.21875 L 282.527344 143.207031 C 283.050781 143.0625 283.394531 142.730469 283.550781 142.207031 C 283.660156 141.875 283.652344 141.542969 283.539062 141.214844 C 283.449219 140.9375 283.285156 140.722656 283.039062 140.566406 C 282.914062 140.492188 282.78125 140.445312 282.640625 140.425781 C 282.496094 140.40625 282.355469 140.414062 282.214844 140.453125 C 282.078125 140.488281 281.949219 140.550781 281.835938 140.636719 C 281.722656 140.722656 281.628906 140.828125 281.554688 140.953125 Z M 346.4375 196.769531 C 346.4375 200.050781 351.527344 200.050781 351.527344 196.769531 C 351.527344 193.488281 346.4375 193.488281 346.4375 196.769531 Z M 321.828125 135.464844 C 321.828125 132.191406 316.734375 132.183594 316.734375 135.464844 C 316.734375 138.75 321.828125 138.746094 321.828125 135.464844 Z M 734.332031 244.691406 C 734.332031 247.972656 739.425781 247.972656 739.425781 244.691406 C 739.425781 241.410156 734.332031 241.410156 734.332031 244.691406 Z M 715.03125 246.488281 C 715.03125 249.769531 720.125 249.769531 720.125 246.488281 C 720.125 243.203125 715.03125 243.203125 715.03125 246.488281 Z M 717.726562 235.714844 C 717.726562 238.996094 722.816406 238.996094 722.816406 235.714844 C 722.816406 232.433594 717.726562 232.433594 717.726562 235.714844 Z M 742.863281 150.433594 C 742.863281 153.71875 747.957031 153.71875 747.957031 150.433594 C 747.957031 147.152344 742.863281 147.152344 742.863281 150.433594 Z M 720.417969 154.023438 C 720.417969 157.304688 725.511719 157.308594 725.511719 154.023438 C 725.511719 150.742188 720.417969 150.746094 720.417969 154.027344 Z M 745.109375 132.480469 C 745.109375 135.761719 750.203125 135.761719 750.203125 132.480469 C 750.203125 129.195312 745.109375 129.199219 745.109375 132.484375 Z M 467.746094 152.839844 C 467.746094 149.5625 462.652344 149.558594 462.652344 152.839844 C 462.652344 156.125 467.746094 156.128906 467.746094 152.84375 Z M 426.0625 162.121094 C 426.0625 165.40625 431.15625 165.40625 431.15625 162.121094 C 431.15625 158.839844 426.0625 158.847656 426.0625 162.128906 Z M 430.429688 135.917969 C 430.429688 139.199219 435.523438 139.199219 435.523438 135.917969 C 435.523438 132.636719 430.429688 132.640625 430.429688 135.921875 Z M 332.347656 328.636719 C 332.109375 328.5 331.855469 328.414062 331.585938 328.375 C 331.316406 328.339844 331.046875 328.355469 330.785156 328.421875 C 330.519531 328.492188 330.277344 328.609375 330.058594 328.773438 C 329.84375 328.941406 329.664062 329.140625 329.527344 329.375 L 329.320312 329.867188 C 329.234375 330.136719 329.21875 330.414062 329.28125 330.691406 C 329.289062 330.761719 329.304688 330.832031 329.320312 330.898438 L 329.320312 330.914062 L 329.378906 331.347656 L 329.542969 331.734375 C 329.640625 331.921875 329.78125 332.074219 329.960938 332.191406 C 330.0625 332.292969 330.179688 332.359375 330.320312 332.398438 C 330.445312 332.472656 330.582031 332.511719 330.726562 332.511719 C 330.871094 332.550781 331.015625 332.550781 331.160156 332.511719 C 331.269531 332.503906 331.378906 332.484375 331.484375 332.449219 L 331.867188 332.398438 C 332.128906 332.339844 332.363281 332.214844 332.5625 332.03125 C 332.789062 331.882812 332.964844 331.691406 333.09375 331.453125 C 333.242188 331.21875 333.324219 330.964844 333.335938 330.691406 C 333.386719 330.28125 333.320312 329.890625 333.140625 329.519531 C 332.960938 329.148438 332.695312 328.855469 332.347656 328.636719 Z M 320.078125 346.226562 C 320.078125 346.199219 320.078125 346.171875 320.078125 346.140625 C 320.085938 345.746094 320.113281 345.339844 320.09375 344.945312 C 320.078125 344.527344 319.972656 344.132812 319.777344 343.761719 C 319.707031 343.640625 319.625 343.527344 319.527344 343.425781 C 319.429688 343.324219 319.320312 343.234375 319.203125 343.160156 C 319.082031 343.085938 318.953125 343.023438 318.820312 342.980469 C 318.6875 342.9375 318.546875 342.914062 318.40625 342.902344 C 318.265625 342.894531 318.125 342.90625 317.988281 342.929688 C 317.847656 342.957031 317.714844 343 317.589844 343.058594 C 317.460938 343.121094 317.34375 343.195312 317.234375 343.285156 C 317.125 343.375 317.027344 343.476562 316.945312 343.589844 C 316.667969 343.976562 316.519531 344.40625 316.496094 344.882812 C 316.480469 345.304688 316.484375 345.722656 316.507812 346.140625 C 316.503906 346.378906 316.542969 346.609375 316.628906 346.828125 C 316.714844 347.046875 316.839844 347.246094 317 347.414062 C 317.164062 347.585938 317.355469 347.71875 317.570312 347.816406 C 317.789062 347.910156 318.015625 347.960938 318.25 347.96875 C 318.488281 347.972656 318.71875 347.933594 318.9375 347.847656 C 319.160156 347.761719 319.355469 347.636719 319.527344 347.476562 C 319.695312 347.3125 319.832031 347.121094 319.925781 346.90625 C 320.019531 346.6875 320.070312 346.460938 320.078125 346.226562 Z M 331.039062 304.640625 C 331.039062 307.921875 336.132812 307.921875 336.132812 304.640625 C 336.132812 301.359375 331.039062 301.355469 331.039062 304.640625 Z M 358.421875 326.742188 L 359.023438 326.253906 C 359.199219 326.078125 359.3125 325.871094 359.359375 325.628906 C 359.40625 325.386719 359.382812 325.152344 359.289062 324.921875 C 359.195312 324.695312 359.042969 324.511719 358.839844 324.375 C 358.632812 324.234375 358.40625 324.167969 358.160156 324.167969 C 357.820312 324.164062 357.53125 324.28125 357.296875 324.523438 L 356.804688 325.128906 C 356.597656 325.355469 356.484375 325.625 356.46875 325.933594 C 356.46875 326.085938 356.5 326.234375 356.558594 326.375 C 356.617188 326.511719 356.699219 326.636719 356.804688 326.746094 C 356.914062 326.851562 357.035156 326.933594 357.175781 326.992188 C 357.316406 327.050781 357.460938 327.078125 357.613281 327.078125 L 357.917969 327.039062 C 358.113281 326.984375 358.28125 326.886719 358.421875 326.742188 Z M 280.972656 257.683594 C 280.972656 254.40625 275.878906 254.402344 275.878906 257.683594 C 275.878906 260.964844 280.972656 260.964844 280.972656 257.683594 Z M 326.667969 102.609375 C 326.667969 105.894531 331.761719 105.894531 331.761719 102.609375 C 331.761719 99.328125 326.667969 99.332031 326.667969 102.609375 Z M 303.3125 127.183594 C 303.320312 126.992188 303.289062 126.8125 303.222656 126.632812 C 303.15625 126.457031 303.058594 126.300781 302.925781 126.164062 C 302.796875 126.027344 302.644531 125.917969 302.472656 125.84375 C 302.296875 125.769531 302.117188 125.730469 301.925781 125.726562 C 301.738281 125.722656 301.554688 125.757812 301.378906 125.832031 C 301.203125 125.902344 301.050781 126.003906 300.917969 126.136719 C 300.78125 126.273438 300.679688 126.425781 300.609375 126.601562 C 300.539062 126.777344 300.503906 126.960938 300.503906 127.148438 C 300.507812 127.335938 300.546875 127.519531 300.621094 127.691406 C 300.699219 127.867188 300.804688 128.019531 300.941406 128.148438 C 301.078125 128.277344 301.234375 128.378906 301.414062 128.445312 C 301.589844 128.511719 301.773438 128.542969 301.960938 128.535156 C 302.136719 128.527344 302.308594 128.488281 302.472656 128.417969 C 302.632812 128.347656 302.777344 128.25 302.902344 128.125 C 303.027344 128 303.125 127.855469 303.199219 127.691406 C 303.269531 127.53125 303.308594 127.359375 303.3125 127.183594 Z M 484.121094 317.148438 L 484.003906 317.453125 C 482.136719 322.496094 491.957031 322.527344 490.078125 317.453125 L 489.964844 317.148438 C 489.867188 316.835938 489.722656 316.546875 489.535156 316.28125 C 489.34375 316.015625 489.117188 315.789062 488.855469 315.59375 C 488.59375 315.402344 488.304688 315.253906 487.996094 315.152344 C 487.6875 315.050781 487.367188 315 487.042969 315 C 486.714844 315 486.398438 315.050781 486.085938 315.152344 C 485.777344 315.253906 485.492188 315.402344 485.226562 315.59375 C 484.964844 315.789062 484.738281 316.015625 484.550781 316.28125 C 484.359375 316.546875 484.21875 316.835938 484.121094 317.148438 Z M 462.652344 328.125 C 462.652344 331.40625 467.746094 331.40625 467.746094 328.125 C 467.746094 324.839844 462.652344 324.839844 462.652344 328.125 Z M 674.578125 324.105469 C 674.082031 324.253906 673.699219 324.550781 673.429688 324.988281 C 673.164062 325.457031 673.101562 325.953125 673.238281 326.472656 C 673.34375 326.871094 673.523438 327.238281 673.773438 327.574219 C 673.984375 327.855469 674.242188 328.089844 674.546875 328.273438 C 674.640625 328.335938 674.742188 328.394531 674.84375 328.457031 C 675.414062 328.78125 676.019531 328.859375 676.65625 328.691406 C 676.976562 328.597656 677.265625 328.441406 677.523438 328.226562 C 677.777344 328.007812 677.980469 327.75 678.125 327.445312 C 678.269531 327.144531 678.347656 326.824219 678.355469 326.488281 C 678.363281 326.15625 678.304688 325.832031 678.175781 325.523438 C 678.078125 325.226562 677.917969 324.976562 677.691406 324.765625 C 677.398438 324.476562 677.054688 324.273438 676.65625 324.164062 L 676.648438 324.164062 C 676.300781 324 675.9375 323.917969 675.554688 323.917969 C 675.21875 323.929688 674.894531 323.992188 674.578125 324.105469 Z M 624.847656 271.875 C 624.847656 275.15625 629.941406 275.15625 629.941406 271.875 C 629.941406 268.589844 624.847656 268.59375 624.847656 271.875 Z M 646.691406 253.316406 C 646.691406 256.597656 651.785156 256.597656 651.785156 253.316406 C 651.785156 250.03125 646.691406 250.03125 646.691406 253.316406 Z M 622.117188 247.855469 C 622.117188 251.136719 627.210938 251.136719 627.210938 247.855469 C 627.210938 244.574219 622.117188 244.570312 622.117188 247.855469 Z M 715.949219 346.683594 C 715.949219 349.964844 721.042969 349.964844 721.042969 346.683594 C 721.042969 343.402344 715.949219 343.398438 715.949219 346.683594 Z M 594.273438 396.917969 C 594.265625 397.113281 594.296875 397.300781 594.363281 397.484375 C 594.433594 397.664062 594.535156 397.828125 594.667969 397.96875 C 594.804688 398.109375 594.960938 398.21875 595.140625 398.296875 C 595.316406 398.375 595.503906 398.414062 595.699219 398.414062 C 595.894531 398.417969 596.082031 398.382812 596.261719 398.308594 C 596.441406 398.234375 596.601562 398.128906 596.738281 397.992188 C 596.875 397.855469 596.980469 397.695312 597.054688 397.515625 C 597.128906 397.335938 597.164062 397.148438 597.160156 396.953125 C 597.15625 396.757812 597.117188 396.574219 597.039062 396.394531 C 596.960938 396.214844 596.851562 396.058594 596.710938 395.925781 C 596.570312 395.792969 596.410156 395.691406 596.226562 395.621094 C 596.046875 395.550781 595.859375 395.519531 595.664062 395.527344 C 595.480469 395.535156 595.304688 395.574219 595.140625 395.648438 C 594.972656 395.71875 594.824219 395.820312 594.695312 395.949219 C 594.566406 396.078125 594.464844 396.226562 594.390625 396.394531 C 594.320312 396.5625 594.277344 396.738281 594.273438 396.917969 Z M 559.859375 127.730469 C 559.859375 131.011719 564.953125 131.011719 564.953125 127.730469 C 564.953125 124.449219 559.859375 124.445312 559.859375 127.730469 Z M 540.746094 127.730469 C 540.746094 131.011719 545.839844 131.011719 545.839844 127.730469 C 545.839844 124.449219 540.746094 124.445312 540.746094 127.730469 Z M 487.355469 201.5 C 487.355469 204.78125 492.445312 204.78125 492.445312 201.5 C 492.445312 198.21875 487.355469 198.21875 487.355469 201.5 Z M 379.332031 203.78125 C 379.332031 207.0625 384.425781 207.0625 384.425781 203.78125 C 384.425781 200.496094 379.332031 200.5 379.332031 203.78125 Z M 562.886719 386.632812 C 562.886719 389.914062 567.980469 389.914062 567.980469 386.632812 C 567.980469 383.351562 562.886719 383.351562 562.886719 386.632812 Z M 516.996094 412.34375 C 516.996094 415.628906 522.085938 415.625 522.085938 412.34375 C 522.085938 409.0625 516.996094 409.0625 516.996094 412.34375 Z M 281.175781 393.074219 C 281.175781 396.359375 286.269531 396.359375 286.269531 393.074219 C 286.269531 389.792969 281.175781 389.792969 281.175781 393.074219 Z M 299.914062 406.523438 C 299.914062 409.808594 305.007812 409.808594 305.007812 406.523438 C 305.007812 403.242188 299.914062 403.242188 299.914062 406.523438 Z M 504.078125 390.195312 C 504.078125 393.476562 509.171875 393.476562 509.171875 390.195312 C 509.171875 386.914062 504.078125 386.914062 504.078125 390.195312 Z M 480.679688 124.710938 C 480.679688 127.996094 485.773438 127.996094 485.773438 124.710938 C 485.773438 121.429688 480.679688 121.429688 480.679688 124.710938 Z M 480.679688 124.710938 " fill-opacity="1" fill-rule="nonzero"/></g><g fill="#9f8bff" fill-opacity="1"><g transform="translate(202.190376, 71.030716)"><g><path d="M 44.511719 -33.757812 C 43.257812 -33.757812 42.339844 -33.515625 42.339844 -32.503906 C 42.339844 -30.765625 44.992188 -31.394531 43.691406 -27.585938 L 37.085938 -7.765625 L 30.816406 -27.488281 C 29.707031 -31.054688 32.308594 -30.71875 32.308594 -32.503906 C 32.308594 -33.46875 31.441406 -33.757812 30.089844 -33.757812 L 22.375 -33.757812 C 20.882812 -33.757812 20.109375 -33.515625 20.109375 -32.453125 C 20.109375 -30.71875 22.328125 -31.25 23.535156 -27.488281 L 24.113281 -25.605469 L 17.84375 -7.570312 L 11.234375 -27.488281 C 10.078125 -31.054688 12.683594 -30.71875 12.683594 -32.503906 C 12.683594 -33.46875 11.816406 -33.757812 10.464844 -33.757812 L 2.75 -33.757812 C 1.253906 -33.757812 0.480469 -33.515625 0.480469 -32.453125 C 0.480469 -30.71875 2.699219 -31.199219 4.003906 -27.488281 L 13.40625 -0.675781 C 13.742188 0.242188 14.515625 0.433594 16.492188 0.0976562 C 18.421875 -0.191406 18.953125 -0.773438 19.144531 -1.445312 L 25.703125 -20.882812 L 32.597656 -0.675781 C 32.9375 0.242188 33.707031 0.480469 35.832031 0.0976562 C 37.757812 -0.191406 38.242188 -0.820312 38.484375 -1.496094 L 47.402344 -27.585938 C 48.65625 -31.25 51.359375 -30.71875 51.359375 -32.503906 C 51.359375 -33.515625 50.347656 -33.757812 48.851562 -33.757812 Z M 44.511719 -33.757812 "/></g></g></g><g fill="#9f8bff" fill-opacity="1"><g transform="translate(253.451013, 71.030716)"><g><path d="M 22.90625 -7.378906 C 21.171875 -5.691406 18.808594 -4.195312 15.867188 -4.195312 C 12.152344 -4.195312 9.933594 -6.367188 8.921875 -8.582031 C 13.9375 -10.417969 17.84375 -11.910156 22.761719 -14.128906 C 23.679688 -14.5625 24.015625 -15.238281 23.871094 -16.011719 C 23.195312 -20.15625 19.867188 -23.628906 14.082031 -23.628906 C 7.328125 -23.628906 1.589844 -18.277344 1.589844 -10.851562 C 1.589844 -4.242188 6.222656 0.480469 13.070312 0.480469 C 19.484375 0.480469 23.484375 -3.472656 24.449219 -6.171875 C 24.933594 -7.570312 23.871094 -8.34375 22.90625 -7.378906 Z M 11.960938 -20.445312 C 14.273438 -20.882812 16.636719 -19.144531 17.3125 -16.347656 C 17.648438 -15.09375 17.023438 -14.757812 16.203125 -14.371094 C 13.597656 -13.261719 10.851562 -12.296875 8.054688 -11.332031 C 7.8125 -12.152344 7.667969 -13.308594 7.667969 -14.371094 C 7.667969 -17.457031 9.164062 -20.109375 11.960938 -20.445312 Z M 11.960938 -20.445312 "/></g></g></g><g fill="#9f8bff" fill-opacity="1"><g transform="translate(279.250112, 71.030716)"><g><path d="M 4.148438 -6.703125 C 4.148438 -2.21875 1.734375 -3.328125 1.734375 -1.253906 C 1.734375 -0.289062 2.605469 0 3.953125 0 L 10.851562 0 C 12.199219 0 12.972656 -0.242188 12.972656 -1.207031 C 12.972656 -3.328125 10.65625 -2.21875 10.65625 -6.703125 L 10.65625 -26.1875 L 10.707031 -32.792969 C 10.707031 -33.804688 10.367188 -34.238281 9.546875 -34.238281 C 8.777344 -34.238281 5.304688 -33.082031 3.328125 -32.117188 C 2.171875 -31.585938 1.785156 -31.25 1.785156 -30.621094 C 1.785156 -29.175781 4.097656 -29.511719 4.097656 -26.1875 Z M 4.148438 -6.703125 "/></g></g></g><g fill="#9f8bff" fill-opacity="1"><g transform="translate(293.909785, 71.030716)"><g><path d="M 13.214844 0.480469 C 19.628906 0.480469 23.097656 -3.183594 24.015625 -5.835938 C 24.496094 -7.28125 23.535156 -8.003906 22.519531 -7.089844 C 20.832031 -5.546875 19.046875 -4.195312 16.105469 -4.195312 C 11.089844 -4.195312 7.859375 -8.199219 7.859375 -14.128906 C 7.859375 -17.9375 9.644531 -20.542969 12.683594 -20.542969 C 15.238281 -20.496094 16.734375 -18.375 17.601562 -15.335938 C 18.035156 -13.648438 18.808594 -12.296875 20.832031 -12.296875 C 22.425781 -12.296875 23.917969 -13.40625 23.917969 -15.625 C 23.917969 -19.773438 20.15625 -23.628906 14.179688 -23.628906 C 7.234375 -23.628906 1.589844 -18.179688 1.589844 -10.800781 C 1.589844 -4.824219 5.835938 0.480469 13.214844 0.480469 Z M 13.214844 0.480469 "/></g></g></g><g fill="#9f8bff" fill-opacity="1"><g transform="translate(319.515985, 71.030716)"><g><path d="M 12.925781 0.480469 C 20.589844 0.480469 26.136719 -5.015625 26.136719 -12.296875 C 26.136719 -18.710938 21.554688 -23.628906 14.902344 -23.628906 C 7.234375 -23.628906 1.589844 -17.890625 1.589844 -10.65625 C 1.589844 -3.808594 6.511719 0.480469 12.925781 0.480469 Z M 14.996094 -2.699219 C 10.851562 -2.699219 7.957031 -8.101562 7.957031 -13.742188 C 7.957031 -17.167969 9.257812 -20.445312 12.730469 -20.445312 C 16.878906 -20.445312 19.722656 -14.515625 19.722656 -8.921875 C 19.722656 -5.59375 18.277344 -2.699219 14.996094 -2.699219 Z M 14.996094 -2.699219 "/></g></g></g><g fill="#9f8bff" fill-opacity="1"><g transform="translate(347.292208, 71.030716)"><g><path d="M 42.097656 -13.695312 C 40.796875 -20.0625 39.0625 -23.628906 33.46875 -23.628906 C 30.238281 -23.628906 27.34375 -22.039062 25.511719 -19 C 24.304688 -21.941406 21.84375 -23.628906 17.9375 -23.628906 C 14.804688 -23.628906 11.816406 -22.085938 9.933594 -19 L 9.933594 -22.136719 C 9.933594 -23.097656 9.597656 -23.582031 8.777344 -23.582031 C 8.003906 -23.535156 5.015625 -22.664062 3.230469 -21.796875 C 2.074219 -21.265625 1.6875 -20.929688 1.6875 -20.15625 C 1.6875 -19.484375 2.121094 -19.144531 2.605469 -18.808594 C 3.570312 -18.085938 4.097656 -17.214844 4.097656 -15.867188 L 4.097656 -6.703125 C 4.097656 -2.21875 1.6875 -3.328125 1.6875 -1.253906 C 1.6875 -0.289062 2.554688 0 3.90625 0 L 10.800781 0 C 12.152344 0 12.925781 -0.242188 12.925781 -1.207031 C 12.925781 -3.328125 10.609375 -2.21875 10.609375 -6.703125 L 10.609375 -12.875 C 10.609375 -17.121094 13.164062 -19.53125 15.769531 -19.578125 C 19.242188 -19.628906 19.867188 -16.589844 19.867188 -13.019531 L 19.867188 -6.703125 C 19.867188 -2.21875 17.503906 -3.328125 17.503906 -1.253906 C 17.503906 -0.289062 18.324219 0 19.722656 0 L 26.621094 0 C 27.921875 0 28.742188 -0.242188 28.742188 -1.207031 C 28.742188 -3.328125 26.378906 -2.21875 26.378906 -6.703125 L 26.378906 -12.875 C 26.378906 -17.265625 28.789062 -19.433594 31.199219 -19.433594 C 34.527344 -19.484375 35.058594 -16.492188 35.636719 -13.453125 L 37.132812 -5.835938 C 37.757812 -2.699219 35.203125 -2.84375 35.203125 -1.253906 C 35.203125 -0.289062 36.070312 0 37.421875 0 L 44.171875 0 C 45.476562 0 46.246094 -0.242188 46.246094 -1.207031 C 46.246094 -2.894531 44.316406 -2.507812 43.738281 -5.449219 Z M 42.097656 -13.695312 "/></g></g></g><g fill="#9f8bff" fill-opacity="1"><g transform="translate(393.7788, 71.030716)"><g><path d="M 22.90625 -7.378906 C 21.171875 -5.691406 18.808594 -4.195312 15.867188 -4.195312 C 12.152344 -4.195312 9.933594 -6.367188 8.921875 -8.582031 C 13.9375 -10.417969 17.84375 -11.910156 22.761719 -14.128906 C 23.679688 -14.5625 24.015625 -15.238281 23.871094 -16.011719 C 23.195312 -20.15625 19.867188 -23.628906 14.082031 -23.628906 C 7.328125 -23.628906 1.589844 -18.277344 1.589844 -10.851562 C 1.589844 -4.242188 6.222656 0.480469 13.070312 0.480469 C 19.484375 0.480469 23.484375 -3.472656 24.449219 -6.171875 C 24.933594 -7.570312 23.871094 -8.34375 22.90625 -7.378906 Z M 11.960938 -20.445312 C 14.273438 -20.882812 16.636719 -19.144531 17.3125 -16.347656 C 17.648438 -15.09375 17.023438 -14.757812 16.203125 -14.371094 C 13.597656 -13.261719 10.851562 -12.296875 8.054688 -11.332031 C 7.8125 -12.152344 7.667969 -13.308594 7.667969 -14.371094 C 7.667969 -17.457031 9.164062 -20.109375 11.960938 -20.445312 Z M 11.960938 -20.445312 "/></g></g></g><g fill="#9f8bff" fill-opacity="1"><g transform="translate(419.577911, 71.030716)"><g/></g></g><g fill="#9f8bff" fill-opacity="1"><g transform="translate(429.22245, 71.030716)"><g><path d="M 16.300781 -5.449219 C 15.285156 -4.675781 14.082031 -4.050781 12.828125 -4.050781 C 10.65625 -4.050781 9.980469 -5.351562 10.03125 -9.644531 C 10.078125 -14.03125 10.078125 -17.3125 10.078125 -19.964844 L 14.226562 -19.820312 C 15.191406 -19.773438 16.011719 -20.011719 16.300781 -21.460938 C 16.589844 -22.90625 15.816406 -23.148438 14.902344 -23.148438 L 10.128906 -23.148438 C 10.175781 -24.640625 10.222656 -25.945312 10.367188 -27.246094 C 10.417969 -27.96875 9.980469 -28.597656 9.308594 -28.597656 C 9.019531 -28.597656 8.632812 -28.546875 7.523438 -27.921875 C 5.546875 -26.714844 3.230469 -24.835938 1.445312 -23.003906 C 0.917969 -22.519531 0.722656 -21.941406 0.722656 -21.363281 C 0.722656 -20.542969 1.109375 -20.109375 2.410156 -20.109375 L 3.714844 -20.109375 C 3.617188 -17.601562 3.570312 -13.9375 3.570312 -9.644531 L 3.570312 -7.136719 C 3.570312 -2.21875 6.078125 0.480469 10.417969 0.480469 C 14.46875 0.480469 16.976562 -2.265625 17.699219 -4.4375 C 18.035156 -5.449219 17.214844 -6.125 16.300781 -5.449219 Z M 16.300781 -5.449219 "/></g></g></g><g fill="#9f8bff" fill-opacity="1"><g transform="translate(447.884606, 71.030716)"><g><path d="M 12.925781 0.480469 C 20.589844 0.480469 26.136719 -5.015625 26.136719 -12.296875 C 26.136719 -18.710938 21.554688 -23.628906 14.902344 -23.628906 C 7.234375 -23.628906 1.589844 -17.890625 1.589844 -10.65625 C 1.589844 -3.808594 6.511719 0.480469 12.925781 0.480469 Z M 14.996094 -2.699219 C 10.851562 -2.699219 7.957031 -8.101562 7.957031 -13.742188 C 7.957031 -17.167969 9.257812 -20.445312 12.730469 -20.445312 C 16.878906 -20.445312 19.722656 -14.515625 19.722656 -8.921875 C 19.722656 -5.59375 18.277344 -2.699219 14.996094 -2.699219 Z M 14.996094 -2.699219 "/></g></g></g><g fill="#9f8bff" fill-opacity="1"><g transform="translate(475.660829, 71.030716)"><g/></g></g><g fill="#9f8bff" fill-opacity="1"><g transform="translate(485.305368, 71.030716)"><g><path d="M 38.097656 -27.4375 C 37.953125 -31.007812 40.796875 -30.429688 40.796875 -32.40625 C 40.796875 -33.417969 40.121094 -33.757812 38.484375 -33.757812 L 33.179688 -33.757812 C 32.308594 -33.757812 31.730469 -33.371094 31.34375 -32.503906 L 21.507812 -11.285156 L 12.441406 -32.550781 C 12.105469 -33.371094 11.476562 -33.757812 10.609375 -33.757812 L 5.015625 -33.757812 C 3.375 -33.757812 2.699219 -33.417969 2.699219 -32.40625 C 2.699219 -30.476562 5.546875 -30.863281 5.402344 -27.4375 L 4.484375 -6.027344 C 4.339844 -2.75 1.589844 -2.894531 1.589844 -1.300781 C 1.589844 -0.335938 2.21875 -0.046875 3.859375 -0.046875 L 8.148438 -0.046875 C 9.644531 -0.046875 10.367188 -0.242188 10.367188 -1.253906 C 10.367188 -2.941406 7.8125 -2.75 7.957031 -6.027344 L 8.582031 -25.027344 L 17.9375 -2.796875 C 18.179688 -2.121094 18.757812 -1.785156 19.820312 -1.976562 C 20.785156 -2.21875 21.171875 -2.554688 21.554688 -3.375 L 31.730469 -25.316406 L 32.117188 -7.089844 C 32.164062 -2.894531 29.367188 -3.761719 29.367188 -1.398438 C 29.367188 -0.335938 30.140625 0 32.019531 0 L 39.445312 0 C 41.328125 0 42.003906 -0.335938 42.003906 -1.398438 C 42.003906 -3.90625 38.964844 -2.75 38.773438 -7.089844 Z M 38.097656 -27.4375 "/></g></g></g><g fill="#9f8bff" fill-opacity="1"><g transform="translate(528.802173, 71.030716)"><g><path d="M 5.738281 -26.28125 C 8.246094 -26.234375 10.851562 -28.402344 10.945312 -30.765625 C 10.945312 -32.40625 9.644531 -33.757812 7.910156 -33.804688 C 5.449219 -33.902344 2.894531 -31.441406 2.84375 -29.222656 C 2.796875 -27.632812 3.90625 -26.332031 5.738281 -26.28125 Z M 4.097656 -6.703125 C 4.097656 -2.21875 1.734375 -3.328125 1.734375 -1.253906 C 1.734375 -0.289062 2.554688 0 3.953125 0 L 10.851562 0 C 12.152344 0 12.972656 -0.242188 12.972656 -1.207031 C 12.972656 -3.328125 10.609375 -2.21875 10.609375 -6.703125 L 10.609375 -15.527344 L 10.65625 -22.136719 C 10.65625 -23.148438 10.320312 -23.628906 9.546875 -23.582031 C 8.777344 -23.582031 5.304688 -22.425781 3.277344 -21.507812 C 2.121094 -20.976562 1.785156 -20.640625 1.785156 -19.964844 C 1.785156 -18.519531 4.097656 -18.855469 4.097656 -15.527344 Z M 4.097656 -6.703125 "/></g></g></g><g fill="#9f8bff" fill-opacity="1"><g transform="translate(543.317184, 71.030716)"><g><path d="M 26.621094 -13.695312 C 25.367188 -20.0625 23.292969 -23.628906 17.792969 -23.628906 C 14.707031 -23.628906 11.765625 -22.136719 9.933594 -19.242188 L 9.933594 -22.136719 C 9.933594 -23.097656 9.597656 -23.582031 8.777344 -23.582031 C 8.003906 -23.535156 5.015625 -22.664062 3.230469 -21.796875 C 2.074219 -21.265625 1.6875 -20.929688 1.6875 -20.15625 C 1.6875 -19.484375 2.121094 -19.144531 2.605469 -18.808594 C 3.570312 -18.085938 4.097656 -17.214844 4.097656 -15.867188 L 4.097656 -6.703125 C 4.097656 -2.21875 1.6875 -3.328125 1.6875 -1.253906 C 1.6875 -0.289062 2.554688 0 3.90625 0 L 10.800781 0 C 12.152344 0 12.925781 -0.242188 12.925781 -1.207031 C 12.925781 -3.328125 10.609375 -2.21875 10.609375 -6.703125 L 10.609375 -12.875 C 10.609375 -17.121094 12.925781 -19.433594 15.480469 -19.433594 C 18.664062 -19.484375 19.578125 -16.492188 20.15625 -13.453125 L 21.652344 -5.835938 C 22.28125 -2.699219 19.773438 -2.84375 19.773438 -1.253906 C 19.773438 -0.289062 20.589844 0 21.941406 0 L 28.691406 0 C 29.996094 0 30.816406 -0.242188 30.816406 -1.207031 C 30.816406 -2.894531 28.886719 -2.507812 28.257812 -5.449219 Z M 26.621094 -13.695312 "/></g></g></g><g fill="#9f8bff" fill-opacity="1"><g transform="translate(574.324327, 71.030716)"><g><path d="M 22.90625 -7.378906 C 21.171875 -5.691406 18.808594 -4.195312 15.867188 -4.195312 C 12.152344 -4.195312 9.933594 -6.367188 8.921875 -8.582031 C 13.9375 -10.417969 17.84375 -11.910156 22.761719 -14.128906 C 23.679688 -14.5625 24.015625 -15.238281 23.871094 -16.011719 C 23.195312 -20.15625 19.867188 -23.628906 14.082031 -23.628906 C 7.328125 -23.628906 1.589844 -18.277344 1.589844 -10.851562 C 1.589844 -4.242188 6.222656 0.480469 13.070312 0.480469 C 19.484375 0.480469 23.484375 -3.472656 24.449219 -6.171875 C 24.933594 -7.570312 23.871094 -8.34375 22.90625 -7.378906 Z M 11.960938 -20.445312 C 14.273438 -20.882812 16.636719 -19.144531 17.3125 -16.347656 C 17.648438 -15.09375 17.023438 -14.757812 16.203125 -14.371094 C 13.597656 -13.261719 10.851562 -12.296875 8.054688 -11.332031 C 7.8125 -12.152344 7.667969 -13.308594 7.667969 -14.371094 C 7.667969 -17.457031 9.164062 -20.109375 11.960938 -20.445312 Z M 11.960938 -20.445312 "/></g></g></g><g fill="#9f8bff" fill-opacity="1"><g transform="translate(600.123426, 71.030716)"><g/></g></g><g fill="#9f8bff" fill-opacity="1"><g transform="translate(609.767965, 71.030716)"><g><path d="M 14.902344 0.433594 C 21.410156 0.433594 27.632812 -3.328125 27.535156 -9.789062 C 27.488281 -15.191406 22.90625 -17.070312 17.359375 -19.867188 C 12.34375 -22.425781 9.597656 -23.917969 9.597656 -27.003906 C 9.597656 -29.417969 11.285156 -31.152344 14.371094 -31.152344 C 18.132812 -31.152344 20.734375 -28.113281 22.328125 -25.75 C 23.242188 -24.351562 23.824219 -23.726562 24.59375 -23.726562 C 25.605469 -23.726562 25.894531 -24.546875 25.800781 -25.847656 C 25.605469 -27.96875 25.222656 -29.945312 24.835938 -31.636719 C 24.402344 -33.707031 23.871094 -34.191406 23.003906 -34.191406 C 22.039062 -34.191406 21.75 -33.515625 20.542969 -33.515625 C 19.433594 -33.515625 17.457031 -34.191406 15.09375 -34.191406 C 7.957031 -34.191406 3.039062 -29.851562 3.039062 -24.59375 C 3.039062 -18.902344 7.328125 -16.976562 12.585938 -14.324219 C 16.636719 -12.25 20.6875 -10.464844 20.589844 -7.136719 C 20.496094 -4.871094 19 -2.699219 15.433594 -2.699219 C 9.980469 -2.699219 7.136719 -6.605469 5.738281 -9.308594 C 4.871094 -10.753906 4.484375 -11.332031 3.617188 -11.332031 C 2.699219 -11.332031 2.460938 -10.511719 2.507812 -9.210938 C 2.699219 -6.703125 3.085938 -4.484375 3.472656 -2.171875 C 3.808594 -0.0976562 4.386719 0.480469 5.304688 0.480469 C 6.269531 0.480469 6.460938 -0.433594 7.859375 -0.433594 C 9.164062 -0.433594 11.285156 0.433594 14.902344 0.433594 Z M 14.902344 0.433594 "/></g></g></g><g fill="#9f8bff" fill-opacity="1"><g transform="translate(639.473086, 71.030716)"><g><path d="M 35.492188 -23.195312 C 34.191406 -23.195312 33.417969 -22.953125 33.417969 -21.988281 C 33.417969 -20.15625 36.023438 -20.832031 34.382812 -16.925781 L 30.285156 -7.378906 L 24.546875 -22.425781 C 24.257812 -23.242188 23.679688 -23.582031 22.039062 -23.195312 C 20.785156 -22.90625 20.496094 -22.425781 20.253906 -21.796875 L 14.851562 -7.425781 L 11.042969 -16.878906 C 9.453125 -20.832031 12.25 -20.15625 12.25 -21.941406 C 12.25 -22.90625 11.378906 -23.195312 10.03125 -23.195312 L 2.652344 -23.195312 C 1.351562 -23.195312 0.53125 -22.953125 0.53125 -21.988281 C 0.53125 -20.15625 2.507812 -20.832031 4.050781 -16.878906 L 10.5625 -0.675781 C 10.898438 0.144531 11.527344 0.480469 13.359375 0.046875 C 14.707031 -0.289062 15.433594 -0.820312 15.671875 -1.445312 L 20.589844 -14.5625 L 25.75 -0.675781 C 26.039062 0.144531 26.667969 0.335938 28.355469 0.046875 C 30.1875 -0.289062 30.527344 -0.820312 30.816406 -1.445312 L 37.46875 -16.925781 C 39.15625 -20.832031 41.085938 -20.15625 41.085938 -21.941406 C 41.085938 -22.90625 40.265625 -23.195312 38.917969 -23.195312 Z M 35.492188 -23.195312 "/></g></g></g><g fill="#9f8bff" fill-opacity="1"><g transform="translate(681.089173, 71.030716)"><g><path d="M 22.90625 -7.378906 C 21.171875 -5.691406 18.808594 -4.195312 15.867188 -4.195312 C 12.152344 -4.195312 9.933594 -6.367188 8.921875 -8.582031 C 13.9375 -10.417969 17.84375 -11.910156 22.761719 -14.128906 C 23.679688 -14.5625 24.015625 -15.238281 23.871094 -16.011719 C 23.195312 -20.15625 19.867188 -23.628906 14.082031 -23.628906 C 7.328125 -23.628906 1.589844 -18.277344 1.589844 -10.851562 C 1.589844 -4.242188 6.222656 0.480469 13.070312 0.480469 C 19.484375 0.480469 23.484375 -3.472656 24.449219 -6.171875 C 24.933594 -7.570312 23.871094 -8.34375 22.90625 -7.378906 Z M 11.960938 -20.445312 C 14.273438 -20.882812 16.636719 -19.144531 17.3125 -16.347656 C 17.648438 -15.09375 17.023438 -14.757812 16.203125 -14.371094 C 13.597656 -13.261719 10.851562 -12.296875 8.054688 -11.332031 C 7.8125 -12.152344 7.667969 -13.308594 7.667969 -14.371094 C 7.667969 -17.457031 9.164062 -20.109375 11.960938 -20.445312 Z M 11.960938 -20.445312 "/></g></g></g><g fill="#9f8bff" fill-opacity="1"><g transform="translate(706.888272, 71.030716)"><g><path d="M 22.90625 -7.378906 C 21.171875 -5.691406 18.808594 -4.195312 15.867188 -4.195312 C 12.152344 -4.195312 9.933594 -6.367188 8.921875 -8.582031 C 13.9375 -10.417969 17.84375 -11.910156 22.761719 -14.128906 C 23.679688 -14.5625 24.015625 -15.238281 23.871094 -16.011719 C 23.195312 -20.15625 19.867188 -23.628906 14.082031 -23.628906 C 7.328125 -23.628906 1.589844 -18.277344 1.589844 -10.851562 C 1.589844 -4.242188 6.222656 0.480469 13.070312 0.480469 C 19.484375 0.480469 23.484375 -3.472656 24.449219 -6.171875 C 24.933594 -7.570312 23.871094 -8.34375 22.90625 -7.378906 Z M 11.960938 -20.445312 C 14.273438 -20.882812 16.636719 -19.144531 17.3125 -16.347656 C 17.648438 -15.09375 17.023438 -14.757812 16.203125 -14.371094 C 13.597656 -13.261719 10.851562 -12.296875 8.054688 -11.332031 C 7.8125 -12.152344 7.667969 -13.308594 7.667969 -14.371094 C 7.667969 -17.457031 9.164062 -20.109375 11.960938 -20.445312 Z M 11.960938 -20.445312 "/></g></g></g><g fill="#9f8bff" fill-opacity="1"><g transform="translate(732.68737, 71.030716)"><g><path d="M 17.746094 -23.628906 C 13.742188 -23.628906 11.1875 -21.652344 9.644531 -19.386719 L 9.644531 -22.183594 C 9.644531 -23.195312 9.308594 -23.628906 8.488281 -23.628906 C 7.765625 -23.628906 4.773438 -22.714844 2.941406 -21.894531 C 1.785156 -21.363281 1.398438 -21.027344 1.398438 -20.253906 C 1.398438 -19.578125 1.878906 -19.242188 2.316406 -18.855469 C 3.277344 -18.179688 3.808594 -17.3125 3.808594 -15.960938 L 3.808594 2.941406 C 3.808594 7.425781 1.445312 6.316406 1.445312 8.4375 C 1.445312 9.355469 2.265625 9.644531 3.664062 9.644531 L 10.5625 9.644531 C 11.863281 9.644531 12.683594 9.402344 12.683594 8.4375 C 12.683594 6.316406 10.320312 7.425781 10.320312 2.941406 L 10.320312 -1.496094 C 12.007812 -0.433594 14.324219 0.480469 16.878906 0.480469 C 21.941406 0.480469 27.535156 -3.859375 27.535156 -12.394531 C 27.535156 -19.386719 23.195312 -23.628906 17.746094 -23.628906 Z M 16.445312 -2.507812 C 13.503906 -2.507812 10.417969 -5.257812 10.367188 -9.980469 L 10.320312 -13.117188 L 10.320312 -13.261719 C 10.320312 -16.734375 12.296875 -19.675781 15.335938 -19.675781 C 18.855469 -19.675781 21.21875 -15.433594 21.21875 -9.691406 C 21.21875 -6.222656 19.867188 -2.554688 16.445312 -2.507812 Z M 16.445312 -2.507812 "/></g></g></g><g fill="#9f8bff" fill-opacity="1"><g transform="translate(761.81384, 71.030716)"><g><path d="M 22.90625 -7.378906 C 21.171875 -5.691406 18.808594 -4.195312 15.867188 -4.195312 C 12.152344 -4.195312 9.933594 -6.367188 8.921875 -8.582031 C 13.9375 -10.417969 17.84375 -11.910156 22.761719 -14.128906 C 23.679688 -14.5625 24.015625 -15.238281 23.871094 -16.011719 C 23.195312 -20.15625 19.867188 -23.628906 14.082031 -23.628906 C 7.328125 -23.628906 1.589844 -18.277344 1.589844 -10.851562 C 1.589844 -4.242188 6.222656 0.480469 13.070312 0.480469 C 19.484375 0.480469 23.484375 -3.472656 24.449219 -6.171875 C 24.933594 -7.570312 23.871094 -8.34375 22.90625 -7.378906 Z M 11.960938 -20.445312 C 14.273438 -20.882812 16.636719 -19.144531 17.3125 -16.347656 C 17.648438 -15.09375 17.023438 -14.757812 16.203125 -14.371094 C 13.597656 -13.261719 10.851562 -12.296875 8.054688 -11.332031 C 7.8125 -12.152344 7.667969 -13.308594 7.667969 -14.371094 C 7.667969 -17.457031 9.164062 -20.109375 11.960938 -20.445312 Z M 11.960938 -20.445312 "/></g></g></g><g fill="#9f8bff" fill-opacity="1"><g transform="translate(787.612939, 71.030716)"><g><path d="M 16.589844 -23.628906 C 14.273438 -23.628906 11.71875 -22.230469 9.933594 -19.289062 L 9.933594 -22.136719 C 9.933594 -23.097656 9.597656 -23.582031 8.777344 -23.582031 C 8.003906 -23.535156 5.015625 -22.664062 3.230469 -21.796875 C 2.074219 -21.265625 1.6875 -20.929688 1.6875 -20.15625 C 1.6875 -19.484375 2.121094 -19.144531 2.605469 -18.808594 C 3.570312 -18.085938 4.097656 -17.214844 4.097656 -15.867188 L 4.097656 -6.703125 C 4.097656 -2.21875 1.6875 -3.328125 1.6875 -1.253906 C 1.6875 -0.289062 2.554688 0 3.90625 0 L 10.800781 0 C 12.152344 0 12.925781 -0.242188 12.925781 -1.207031 C 12.925781 -3.328125 10.609375 -2.21875 10.609375 -6.703125 L 10.609375 -13.214844 C 10.609375 -16.734375 12.199219 -18.757812 13.9375 -18.757812 C 16.25 -18.757812 16.15625 -16.25 18.519531 -16.25 C 19.867188 -16.300781 20.882812 -17.554688 20.882812 -19.484375 C 20.882812 -21.84375 19.335938 -23.628906 16.589844 -23.628906 Z M 16.589844 -23.628906 "/></g></g></g><g fill="#9f8bff" fill-opacity="1"><g transform="translate(809.988218, 71.030716)"><g><path d="M 5.882812 -11.621094 C 6.605469 -11.621094 6.800781 -11.960938 6.847656 -12.972656 C 7.328125 -20.445312 9.742188 -26.859375 9.742188 -30.042969 C 9.742188 -32.648438 8.054688 -34.238281 5.882812 -34.238281 C 3.761719 -34.238281 2.121094 -32.648438 2.121094 -30.042969 C 2.121094 -26.859375 4.4375 -20.445312 4.917969 -12.972656 C 4.96875 -11.960938 5.207031 -11.621094 5.882812 -11.621094 Z M 5.738281 0.480469 C 7.8125 0.480469 9.691406 -0.964844 9.691406 -3.328125 C 9.691406 -5.640625 7.957031 -6.847656 6.171875 -6.847656 C 4.195312 -6.847656 2.21875 -5.402344 2.21875 -2.941406 C 2.21875 -0.675781 3.859375 0.480469 5.738281 0.480469 Z M 5.738281 0.480469 "/></g></g></g></svg>